<?xml version="1.0" standalone="no"?><!DOCTYPE svg PUBLIC "-//W3C//DTD SVG 1.1//EN" "http://www.w3.org/Graphics/SVG/1.1/DTD/svg11.dtd"><svg t="1702647069811" class="icon" viewBox="0 0 1024 1024" version="1.1" xmlns="http://www.w3.org/2000/svg" p-id="1209" xmlns:xlink="http://www.w3.org/1999/xlink" width="200" height="200"><path d="M690.742 228.471H567.187l-57.701 57.699-57.701-57.699H333.258c-27.527 0-49.843 21.43-49.843 47.867v506.547c0 22.064 15.566 40.59 36.712 46.131 3.08-101.963 86.647-183.689 189.357-183.689 103.062 0 186.845 82.284 189.384 184.731 23.651-3.731 41.718-23.402 41.718-47.173V276.337c0.001-26.437-22.315-47.866-49.844-47.866zM507.808 601.722c-73.169 0-132.485-59.316-132.485-132.487 0-73.169 59.315-132.485 132.485-132.485 73.168 0 132.486 59.315 132.486 132.485 0 73.17-59.317 132.487-132.486 132.487z" fill="#a7f2f9" p-id="1210"></path><path d="M738.213 164.014H585.788l-76.304-76.302-76.304 76.302H285.79c-34.838 0-63.08 25.48-63.08 56.913V823.2c0 31.427 28.241 56.911 63.08 56.911h170.033L512 936.287l56.18-56.176h170.033c34.835 0 63.076-25.484 63.076-56.911V220.927c0-31.433-28.241-56.913-63.076-56.913z m19.475 637.82c0 28.41-23.987 51.445-53.572 51.445H567.348L512 797.933l-55.345 55.347h-136.77c-29.586 0-53.572-23.035-53.572-51.445V257.39c0-28.417 23.985-51.449 53.572-51.449H442.67l66.813-66.813 66.813 66.813h127.818c29.585 0 53.572 23.033 53.572 51.449v544.444z" fill="#a7f2f9" p-id="1211"></path></svg>